<svg width="301" height="63" viewBox="0 0 301 63" fill="none" xmlns="http://www.w3.org/2000/svg">
<rect x="14.4915" y="32.5691" width="9" height="26" fill="#CD4900"/>
<rect x="21.4915" y="32.5691" width="22" height="8" fill="#CD4900"/>
<rect width="7" height="38.901" transform="matrix(0.615661 0.788011 0.788011 -0.615661 0 23.95)" fill="#CD4900"/>
<rect x="23.4915" y="16.5691" width="6" height="6" fill="#CD4900"/>
<rect x="23.4915" y="24.5691" width="6" height="6" fill="#CD4900"/>
<rect x="31.4915" y="24.5691" width="6" height="6" fill="#CD4900"/>
<rect x="31.4915" y="16.5691" width="6" height="6" fill="#CD4900"/>
<path d="M56.968 59.0002V12.6642H67.464V59.0002H56.968ZM84.8135 59.7682C83.4055 59.7682 82.0188 59.6189 80.6535 59.3202C79.3308 59.0642 78.1148 58.5949 77.0055 57.9122C75.9388 57.1869 75.0855 56.2056 74.4455 54.9682C73.8055 53.7309 73.4855 52.1736 73.4855 50.2962C73.4855 47.8642 73.9975 45.8802 75.0215 44.3442C76.0455 42.8082 77.5175 41.6136 79.4375 40.7602C81.4002 39.8642 83.7468 39.2456 86.4775 38.9042C89.2508 38.5629 92.3442 38.3922 95.7575 38.3922V36.2802C95.7575 35.2989 95.5655 34.4882 95.1815 33.8482C94.7975 33.1656 94.2215 32.6536 93.4535 32.3122C92.7282 31.9282 91.7468 31.7362 90.5095 31.7362C89.4002 31.7362 88.4188 31.8642 87.5655 32.1202C86.7548 32.3762 86.1362 32.7602 85.7095 33.2722C85.2828 33.7416 85.0695 34.3176 85.0695 35.0002V35.5762H74.8295C74.7868 35.3629 74.7655 35.1922 74.7655 35.0642C74.7655 34.8936 74.7655 34.6802 74.7655 34.4242C74.7655 32.4189 75.3842 30.6696 76.6215 29.1762C77.9015 27.6829 79.7148 26.5309 82.0615 25.7202C84.4082 24.9096 87.2455 24.5042 90.5735 24.5042C93.6882 24.5042 96.3975 24.8882 98.7015 25.6562C101.048 26.4242 102.883 27.5976 104.206 29.1762C105.571 30.7549 106.254 32.8242 106.254 35.3842V49.7842C106.254 50.5096 106.446 51.0856 106.83 51.5122C107.256 51.9389 107.768 52.1522 108.366 52.1522H110.542V58.6162C110.072 58.8296 109.326 59.0642 108.302 59.3202C107.32 59.6189 106.126 59.7682 104.718 59.7682C103.267 59.7682 101.987 59.5762 100.878 59.1922C99.8108 58.8509 98.9148 58.3602 98.1895 57.7202C97.5068 57.0376 97.0375 56.2482 96.7815 55.3522H96.3335C95.5228 56.2056 94.5628 56.9736 93.4535 57.6562C92.3868 58.3389 91.1282 58.8509 89.6775 59.1922C88.2695 59.5762 86.6482 59.7682 84.8135 59.7682ZM88.7175 52.5362C89.7415 52.5362 90.6802 52.3869 91.5335 52.0882C92.3868 51.7896 93.1122 51.3842 93.7095 50.8722C94.3495 50.3176 94.8402 49.6562 95.1815 48.8882C95.5655 48.1202 95.7575 47.2882 95.7575 46.3922V44.1522C93.3255 44.1522 91.2348 44.3229 89.4855 44.6642C87.7362 45.0056 86.3922 45.5389 85.4535 46.2642C84.5148 46.9896 84.0455 47.9069 84.0455 49.0162C84.0455 49.8269 84.2375 50.5096 84.6215 51.0642C85.0482 51.5762 85.6028 51.9602 86.2855 52.2162C86.9682 52.4296 87.7788 52.5362 88.7175 52.5362ZM126.683 59.7682C124.507 59.7682 122.651 59.4482 121.115 58.8082C119.622 58.1256 118.491 57.1229 117.723 55.8002C116.998 54.4776 116.635 52.8776 116.635 51.0002V32.8882H112.219V25.2722H116.955L119.131 15.4162H127.067V25.2722H133.659V32.8882H127.067V48.4402C127.067 49.6349 127.302 50.5522 127.771 51.1922C128.24 51.8322 129.094 52.1522 130.331 52.1522H133.659V58.6802C133.104 58.8509 132.4 59.0216 131.547 59.1922C130.736 59.4056 129.904 59.5549 129.051 59.6402C128.198 59.7256 127.408 59.7682 126.683 59.7682ZM140.3 59.0002V15.0322H157.004L162.316 34.6162C162.529 35.2989 162.785 36.2376 163.084 37.4322C163.383 38.5842 163.681 39.8002 163.98 41.0802C164.279 42.3602 164.535 43.5122 164.748 44.5362H165.26C165.431 43.7256 165.644 42.7656 165.9 41.6562C166.156 40.5042 166.433 39.3096 166.732 38.0722C167.031 36.7922 167.308 35.6189 167.564 34.5522L172.94 15.0322H189.196V59.0002H178.06V40.2482C178.06 38.4136 178.06 36.5576 178.06 34.6802C178.103 32.8029 178.145 31.0962 178.188 29.5602C178.231 28.0242 178.252 26.9149 178.252 26.2322H177.74C177.612 26.8722 177.399 27.8109 177.1 29.0482C176.844 30.2429 176.545 31.5016 176.204 32.8242C175.905 34.1042 175.628 35.2136 175.372 36.1522L168.972 59.0002H159.756L153.292 36.1522C153.079 35.2989 152.823 34.2749 152.524 33.0802C152.225 31.8856 151.927 30.6696 151.628 29.4322C151.372 28.1949 151.137 27.1496 150.924 26.2962H150.412C150.455 27.4056 150.497 28.7709 150.54 30.3922C150.583 31.9709 150.625 33.6349 150.668 35.3842C150.711 37.0909 150.732 38.7122 150.732 40.2482V59.0002H140.3ZM207.376 59.7682C205.968 59.7682 204.581 59.6189 203.216 59.3202C201.893 59.0642 200.677 58.5949 199.568 57.9122C198.501 57.1869 197.648 56.2056 197.008 54.9682C196.368 53.7309 196.048 52.1736 196.048 50.2962C196.048 47.8642 196.56 45.8802 197.584 44.3442C198.608 42.8082 200.08 41.6136 202 40.7602C203.963 39.8642 206.309 39.2456 209.04 38.9042C211.813 38.5629 214.907 38.3922 218.32 38.3922V36.2802C218.32 35.2989 218.128 34.4882 217.744 33.8482C217.36 33.1656 216.784 32.6536 216.016 32.3122C215.291 31.9282 214.309 31.7362 213.072 31.7362C211.963 31.7362 210.981 31.8642 210.128 32.1202C209.317 32.3762 208.699 32.7602 208.272 33.2722C207.845 33.7416 207.632 34.3176 207.632 35.0002V35.5762H197.392C197.349 35.3629 197.328 35.1922 197.328 35.0642C197.328 34.8936 197.328 34.6802 197.328 34.4242C197.328 32.4189 197.947 30.6696 199.184 29.1762C200.464 27.6829 202.277 26.5309 204.624 25.7202C206.971 24.9096 209.808 24.5042 213.136 24.5042C216.251 24.5042 218.96 24.8882 221.264 25.6562C223.611 26.4242 225.445 27.5976 226.768 29.1762C228.133 30.7549 228.816 32.8242 228.816 35.3842V49.7842C228.816 50.5096 229.008 51.0856 229.392 51.5122C229.819 51.9389 230.331 52.1522 230.928 52.1522H233.104V58.6162C232.635 58.8296 231.888 59.0642 230.864 59.3202C229.883 59.6189 228.688 59.7682 227.28 59.7682C225.829 59.7682 224.549 59.5762 223.44 59.1922C222.373 58.8509 221.477 58.3602 220.752 57.7202C220.069 57.0376 219.6 56.2482 219.344 55.3522H218.896C218.085 56.2056 217.125 56.9736 216.016 57.6562C214.949 58.3389 213.691 58.8509 212.24 59.1922C210.832 59.5762 209.211 59.7682 207.376 59.7682ZM211.28 52.5362C212.304 52.5362 213.243 52.3869 214.096 52.0882C214.949 51.7896 215.675 51.3842 216.272 50.8722C216.912 50.3176 217.403 49.6562 217.744 48.8882C218.128 48.1202 218.32 47.2882 218.32 46.3922V44.1522C215.888 44.1522 213.797 44.3229 212.048 44.6642C210.299 45.0056 208.955 45.5389 208.016 46.2642C207.077 46.9896 206.608 47.9069 206.608 49.0162C206.608 49.8269 206.8 50.5096 207.184 51.0642C207.611 51.5762 208.165 51.9602 208.848 52.2162C209.531 52.4296 210.341 52.5362 211.28 52.5362ZM249.246 59.7682C247.07 59.7682 245.214 59.4482 243.678 58.8082C242.184 58.1256 241.054 57.1229 240.286 55.8002C239.56 54.4776 239.198 52.8776 239.198 51.0002V32.8882H234.782V25.2722H239.518L241.694 15.4162H249.63V25.2722H256.222V32.8882H249.63V48.4402C249.63 49.6349 249.864 50.5522 250.333 51.1922C250.803 51.8322 251.656 52.1522 252.894 52.1522H256.222V58.6802C255.667 58.8509 254.963 59.0216 254.11 59.1922C253.299 59.4056 252.467 59.5549 251.614 59.6402C250.76 59.7256 249.971 59.7682 249.246 59.7682ZM278.543 59.7682C274.703 59.7682 271.439 59.1496 268.751 57.9122C266.063 56.6322 263.993 54.6909 262.543 52.0882C261.135 49.4856 260.431 46.1576 260.431 42.1042C260.431 38.1362 261.135 34.8509 262.543 32.2482C263.951 29.6456 265.977 27.7042 268.623 26.4242C271.268 25.1442 274.447 24.5042 278.159 24.5042C281.828 24.5042 284.921 25.1229 287.439 26.3602C289.999 27.5976 291.94 29.4962 293.263 32.0562C294.585 34.6162 295.247 37.9229 295.247 41.9762V44.2162H271.055C271.055 46.0082 271.311 47.5229 271.823 48.7602C272.335 49.9976 273.124 50.9362 274.191 51.5762C275.257 52.2162 276.687 52.5362 278.479 52.5362C279.545 52.5362 280.484 52.4082 281.295 52.1522C282.105 51.8962 282.788 51.5336 283.343 51.0642C283.897 50.5522 284.324 49.9549 284.623 49.2722C284.921 48.5896 285.071 47.8216 285.071 46.9682H295.247C295.247 49.0162 294.863 50.8509 294.095 52.4722C293.369 54.0509 292.281 55.3949 290.831 56.5042C289.38 57.5709 287.609 58.3816 285.519 58.9362C283.471 59.4909 281.145 59.7682 278.543 59.7682ZM271.119 38.3922H284.559C284.559 37.2829 284.409 36.3229 284.111 35.5122C283.855 34.6589 283.449 33.9549 282.895 33.4002C282.383 32.8456 281.743 32.4402 280.975 32.1842C280.249 31.8856 279.396 31.7362 278.415 31.7362C276.879 31.7362 275.599 31.9922 274.575 32.5042C273.551 33.0162 272.761 33.7629 272.207 34.7442C271.652 35.7256 271.289 36.9416 271.119 38.3922Z" fill="#CD4900"/>
<path d="M48.5741 22.8727L52.8837 17.3566L31.3761 0.553016L27.0664 6.06909L48.5741 22.8727Z" fill="#CD4900"/>
</svg>
